<svg id="レイヤー_1" data-name="レイヤー 1" xmlns="http://www.w3.org/2000/svg" viewBox="0 0 485.09 208.87"><defs><style>.cls-1,.cls-2,.cls-4{fill:#3de5bf;}.cls-2{font-size:18px;letter-spacing:1.89em;}.cls-2,.cls-4{font-family:ShinGoPr5-Regular-90ms-RKSJ-H, A-OTF Shin Go Pr5;}.cls-3{letter-spacing:1em;}.cls-4{font-size:30px;letter-spacing:1em;}.cls-5{letter-spacing:1em;}</style></defs><path class="cls-1" d="M61.59,64.14l-12-.13V76.27a64.17,64.17,0,0,0,11.72,1.09Z" transform="translate(-16.61 -15.61)"/><path class="cls-1" d="M91.4,116.57c21.42,4.25,26.48,16.63,26.48,27.14,0,26.22-30.21,28.48-49.1,28.48l3.06,10.38c9.31-.26,16.23-.8,23.82-2.39,5.85-1.33,33.4-7.32,33.4-35.93a37.42,37.42,0,0,0-9.85-25.16c-11-11.44-28.61-13.17-40.19-13.17a86.45,86.45,0,0,0-18,1.73l-.77-9.44c-3.8,1-7.2.54-11.2.57l.39,6.74c0,2,0,3.33.13,5.06-20.62,7.58-33,22.49-33,40.72,0,9.71,4.52,24.35,22,24.35,14.61,0,36.65-11.66,49.06-46.58-3.33-1.75-6.9-3.27-9.51-5.74-5.31,16-11.34,24-13.07,26.11-1.73-6.79-3.46-22.49-3.73-32.08a65.94,65.94,0,0,1,19.17-1.86M39.36,164.74c-7,0-11.84-4.92-11.84-13.71,0-14.64,11.18-24.35,22.62-29.81,1.34,16.24,2.27,26.62,5.59,37.26C52.54,160.75,46.82,164.74,39.36,164.74Z" transform="translate(-16.61 -15.61)"/><polygon class="cls-1" points="33 66.62 3.06 66.62 3.06 77.27 32.87 77.27 44.58 77.27 258.28 77.27 258.28 66.62 44.71 66.62 33 66.62"/><path class="cls-1" d="M189.92,92.93l2.49-.05s0,0,0,0C191.56,92.88,190.9,92.91,189.92,92.93Z" transform="translate(-16.61 -15.61)"/><path class="cls-1" d="M225.92,127a102.81,102.81,0,0,1-19.11-28.22c-3.85.36-7.65.67-11.63,1.17,8,19.1,17.19,29.67,20.76,33.83Z" transform="translate(-16.61 -15.61)"/><path class="cls-1" d="M195.75,54.87l-12.25,1.2c1.92,8.63,2.93,12.91,3.95,16.72a113.42,113.42,0,0,1,12.24,1.31A191.41,191.41,0,0,1,195.75,54.87Z" transform="translate(-16.61 -15.61)"/><path class="cls-1" d="M170.37,126c-14.24,4.39-26.08,11.31-26.08,23,0,17.83,26.08,17.83,43.51,17.83,18.9,0,29.54-1.33,35.4-2.13l-.27,11.85a313.93,313.93,0,0,1-33.8,1.46c-27,0-35.4-3.19-42.32-6.92-6.25-3.33-14-10.38-14-21.29s7.45-25.28,32.47-32.87Z" transform="translate(-16.61 -15.61)"/><path class="cls-1" d="M266.15,56.26c-.49,5.11-1,10.22-1.9,17.25,4.05.22,8.09,0,12.14-.16,1.35-8.67,1.85-12.69,2.27-16Z" transform="translate(-16.61 -15.61)"/><path class="cls-1" d="M258.45,106.39c-4.82,22-14.19,48.58-24.56,66.7l11.84,4.79c11.62-23,19.19-50.11,23.65-70.54C265.73,106.5,262.33,106.7,258.45,106.39Z" transform="translate(-16.61 -15.61)"/><path class="cls-1" d="M263.22,83.57H237.93l-.7,8.33,19.63.14c4.79-3.43,8.12-4.62,13.84-3,0-.14-3,3.52-3,3.39l19.77,1C302.2,94.59,308,100,308,122c0,9.72-1.87,28.21-5.86,36.2-3.46,6.92-10.11,6.92-12,6.92-2.66,0-10.38-.67-21.95-2.8l.8,12a136.84,136.84,0,0,0,20.89,2.13c5.05,0,13.57-.27,20-8.12,7.18-8.65,10-31.67,10-45.11,0-25.55-8.15-41.77-28.77-41.63l-21.18,1.17" transform="translate(-16.61 -15.61)"/><path class="cls-1" d="M318.22,55.6c16.95,31.72,28,34,49,37.43l1.69,13c-19.21,5.08-42.85-9.86-61.5-43.61Z" transform="translate(-16.61 -15.61)"/><path class="cls-1" d="M386.05,163.67c5.06.27,8.52.4,14,.4,15.17,0,46.31,0,61-16.9a33.41,33.41,0,0,0,8.38-22.62c0-10.38-3.72-30.34-32.47-30.34-13.84,0-33.93,4.26-47.9,7.18-12.51,2.67-16.9,3.86-21,4.93L365.69,93c5.19-.66,19.29-3.06,34.2-5.59,10.78-1.86,25.68-4.52,37.26-4.52,32.2,0,45.25,20.36,45.25,41.78,0,28.08-20.37,39.66-38.46,45.52-14.91,4.79-33.8,5.45-55.63,4.92Z" transform="translate(-16.61 -15.61)"/><text class="cls-2" transform="translate(4.56 195.48)">morning-wi<tspan class="cls-3" x="439.19" y="0">n</tspan></text><text class="cls-4" transform="translate(4.56 26.4)">毎朝の習慣を記<tspan class="cls-5" x="420.53" y="0">録</tspan></text></svg>